<?xml version="1.0" encoding="iso-8859-1"?>
<!-- Generator: Adobe Illustrator 19.0.0, SVG Export Plug-In . SVG Version: 6.00 Build 0)  -->
<svg version="1.1" id="Capa_1" xmlns="http://www.w3.org/2000/svg" xmlns:xlink="http://www.w3.org/1999/xlink" x="0px" y="0px"
	 viewBox="0 0 368 368" style="enable-background:new 0 0 368 368;" xml:space="preserve">
<g>
	<g>
		<path d="M360,176h-56.408c-1.8-27.064-12.552-51.656-29.392-70.888l43.456-43.456c3.128-3.128,3.128-8.184,0-11.312
			s-8.184-3.128-11.312,0L262.888,93.8C243.656,76.96,219.064,66.208,192,64.408V8c0-4.416-3.576-8-8-8s-8,3.584-8,8v56.408
			c-27.064,1.8-51.656,12.552-70.888,29.392L61.656,50.344c-3.128-3.128-8.184-3.128-11.312,0s-3.128,8.184,0,11.312L93.8,105.112
			C76.96,124.344,66.208,148.936,64.408,176H8c-4.424,0-8,3.584-8,8s3.576,8,8,8h63.984c0.008,0,0.016,0,0.016,0h0.016h223.96
			c0.008,0,0.016,0,0.016,0h0.016H360c4.424,0,8-3.584,8-8C368,179.584,364.424,176,360,176z M80.408,176
			C84.52,122.384,129.36,80,184,80s99.48,42.384,103.592,96H80.408z"/>
	</g>
</g>
<g>
	<g>
		<path d="M237.656,306.344c-3.128-3.128-8.184-3.128-11.312,0L192,340.688V232c0-4.416-3.576-8-8-8s-8,3.584-8,8v108.688
			l-34.344-34.344c-3.128-3.128-8.184-3.128-11.312,0s-3.128,8.184,0,11.312l47.992,47.992c0.736,0.744,1.624,1.328,2.608,1.736
			c0.976,0.4,2.016,0.616,3.056,0.616s2.08-0.216,3.056-0.616c0.984-0.408,1.864-0.992,2.608-1.736l47.992-47.992
			C240.784,314.528,240.784,309.472,237.656,306.344z"/>
	</g>
</g>
<g>
</g>
<g>
</g>
<g>
</g>
<g>
</g>
<g>
</g>
<g>
</g>
<g>
</g>
<g>
</g>
<g>
</g>
<g>
</g>
<g>
</g>
<g>
</g>
<g>
</g>
<g>
</g>
<g>
</g>
</svg>
